<svg width="1440" height="750" viewBox="0 0 1440 750" fill="none" xmlns="http://www.w3.org/2000/svg">
<g clip-path="url(#clip0)">
<rect width="1440" height="750" fill="black"/>
<path d="M1260.25 297.207C1430.45 492.79 1278.14 610.671 1165.49 683.5C1045.25 761.24 781.846 846.27 658.957 770.705C505.345 676.249 654.207 168.194 754.845 117.757C855.482 67.3196 1047.5 52.7284 1260.25 297.207Z" fill="#232323"/>
<mask id="mask0" mask-type="alpha" maskUnits="userSpaceOnUse" x="980" y="91" width="533" height="683">
<path fill-rule="evenodd" clip-rule="evenodd" d="M1014.42 176.816C1005.92 185.554 1001.75 198.036 1003.14 210.541L1030.78 458.075C1031.53 464.791 1030.83 471.6 1028.72 477.98L986.107 607.137C980.391 624.463 986.402 643.719 1000.72 653.93L1153.51 762.935C1164.07 770.469 1177.48 771.825 1189.18 766.543L1485.54 632.732C1499.49 626.431 1508.56 611.832 1508.55 595.668L1508.39 238.228C1508.38 217.294 1493.32 199.866 1473.76 198.155L1468.26 197.673C1479.7 205.043 1487.53 218.145 1488.25 233.307L1503.87 563.038C1504.71 580.781 1495.51 597.338 1480.52 605.071L1212.16 743.468C1199.59 749.95 1184.8 749.247 1172.83 741.597L1028.1 649.175C1011.87 638.806 1004.28 618.021 1009.66 598.668L1043.09 478.473C1044.74 472.572 1045.09 466.349 1044.12 460.281L1007.74 232.29C1005.56 218.644 1009.5 204.698 1018.39 194.608L1076.46 128.649C1090.16 113.093 1112.32 110.194 1129.13 121.758L1210.2 177.508C1215.95 181.461 1222.6 183.672 1229.43 183.905L1362.79 188.444L1237.43 177.475C1229.94 176.819 1222.76 174.002 1216.65 169.325L1130.48 103.331C1115.69 92.0047 1095.42 93.5654 1082.31 107.04L1014.42 176.816ZM1484.52 233.508C1483.68 215.707 1472.06 201.026 1456.51 196.646L1444 195.551C1455.46 202.451 1463.59 215.021 1464.91 229.911L1491.38 528.866C1492.95 546.554 1484.43 563.524 1469.77 571.948L1230.22 709.554C1217.93 716.615 1203.13 716.6 1190.85 709.516L1057.08 632.345C1040.44 622.741 1032 602.33 1036.59 582.745L1062.2 473.366C1063.6 467.394 1063.69 461.16 1062.48 455.143L1020.7 248.336C1017.96 234.804 1021.33 220.687 1029.79 210.193L1078.37 149.957C1091.42 133.778 1113.44 129.85 1130.71 140.62L1204.87 186.858C1210.77 190.54 1217.5 192.44 1224.34 192.354L1323.9 191.105L1229.31 187.886C1221.8 187.63 1214.5 185.2 1208.18 180.855L1127.11 125.105C1111.81 114.583 1091.65 117.221 1079.18 131.376L1021.11 197.334C1013.03 206.515 1009.44 219.205 1011.42 231.622L1047.8 459.613C1048.86 466.281 1048.48 473.121 1046.67 479.606L1013.24 599.801C1008.34 617.411 1015.25 636.323 1030.02 645.758L1174.74 738.18C1185.64 745.141 1199.1 745.781 1210.53 739.882L1478.89 601.486C1492.54 594.449 1500.91 579.384 1500.14 563.239L1484.52 233.508ZM1424.8 189.874L1237.74 173.505C1230.92 172.908 1224.39 170.345 1218.83 166.09L1132.65 100.095C1116.4 87.648 1094.13 89.3632 1079.72 104.172L1011.83 173.948C1002.49 183.552 997.901 197.269 999.435 211.012L1027.07 458.546C1027.76 464.657 1027.12 470.853 1025.2 476.658L982.585 605.815C976.303 624.856 982.909 646.018 998.64 657.24L1151.44 766.246C1163.04 774.526 1177.78 776.016 1190.64 770.21L1486.99 636.4C1502.33 629.475 1512.29 613.431 1512.28 595.666L1512.12 238.226C1512.11 215.219 1495.56 196.066 1474.06 194.185L1457.14 192.704C1454.26 191.919 1451.26 191.456 1448.18 191.351L1437.53 190.988L1429.33 190.271C1427.84 190.052 1426.33 189.919 1424.8 189.874ZM1441.19 229.83C1439.17 213.215 1428.69 199.829 1414.82 194.2L1431.77 194.777C1447.44 198.453 1459.62 212.564 1461.19 230.285L1487.66 529.241C1489.09 545.335 1481.34 560.776 1468 568.441L1228.45 706.047C1217.26 712.472 1203.8 712.459 1192.62 706.013L1058.86 628.842C1043.71 620.103 1036.04 601.531 1040.21 583.71L1065.82 474.331C1067.36 467.768 1067.46 460.917 1066.13 454.304L1024.35 247.497C1021.86 235.184 1024.92 222.339 1032.62 212.79L1081.2 152.555C1093.07 137.833 1113.11 134.259 1128.82 144.058L1202.98 190.297C1209.47 194.343 1216.87 196.431 1224.39 196.336L1315.59 195.193C1315.12 195.301 1314.65 195.418 1314.18 195.545L1313.95 195.606L1300.55 196.279C1295.23 195.417 1289.72 195.653 1284.32 197.096L1223.04 200.176C1216.21 200.519 1209.42 198.874 1203.39 195.415L1138.69 158.268C1121.07 148.152 1099.19 152.908 1086.69 169.571L1047.72 221.498C1039.61 232.303 1036.72 246.534 1039.9 259.953L1083.17 442.652C1084.58 448.618 1084.69 454.851 1083.49 460.87L1064.4 556.661C1060.47 576.405 1069.57 596.485 1086.52 605.457L1205.27 668.305C1217.78 674.925 1232.58 674.382 1244.63 666.86L1453.11 536.74C1467.49 527.769 1475.43 510.492 1473.28 492.877L1441.19 229.83ZM1216.79 212.868L1262.04 207.064L1260.17 207.965L1218.5 215.171C1211.74 216.34 1204.82 215.524 1198.46 212.811L1154.33 193.981C1135.75 186.049 1114.5 193.422 1103.85 211.501L1084.15 244.925C1077.25 256.633 1075.88 271.111 1080.46 284.051L1126.83 415.211C1128.86 420.965 1129.63 427.139 1129.08 433.26L1123.06 499.968C1121.25 520.056 1132.42 538.903 1150.21 545.773L1236.52 579.105C1249.66 584.179 1264.32 581.849 1275.5 572.909L1417.74 459.165C1431.06 448.516 1437.11 430.403 1433.11 413.169L1389.84 226.666C1386.67 213.016 1377.83 202.345 1366.57 196.948L1386.04 195.969C1397.59 200.796 1406.61 211.581 1409.25 225.373L1452.63 451.447C1455.67 467.279 1449.53 483.514 1437.04 492.666L1262.75 620.417C1252.27 628.094 1238.88 629.628 1227.11 624.498L1122.2 578.744C1106.26 571.793 1096.76 554.212 1099.11 536.018L1109.78 453.456C1110.64 446.758 1110.05 439.938 1108.06 433.519L1059.22 276.258C1055.51 264.307 1057.25 251.191 1063.94 240.816L1092.5 196.518C1102.82 180.512 1122.38 174.656 1139 182.6L1194.89 209.318C1201.75 212.598 1209.32 213.825 1216.79 212.868ZM1274.38 205.481L1274.29 205.523L1274.98 205.404L1274.38 205.481ZM1287.71 207.238L1309.99 203.385C1317.12 206.844 1323.29 212.685 1327.34 220.501L1380.71 323.243C1388.04 337.357 1386.75 354.778 1377.44 367.495L1308.11 462.2C1300.28 472.904 1287.91 478.668 1275.22 477.527L1225.25 473.033C1208.1 471.491 1194.11 457.765 1191.23 439.669L1185.68 404.703C1184.62 398.05 1182.15 391.744 1178.46 386.268L1128.67 312.471C1121.79 302.272 1119.78 289.23 1123.22 277.214L1126.47 265.866C1131.8 247.267 1148.85 235.399 1166.95 237.677L1187.8 240.298C1195.28 241.239 1202.86 239.986 1209.73 236.673L1248.88 217.787L1211.54 242.379C1205.7 246.226 1198.99 248.3 1192.12 248.377L1182.8 248.482C1162.99 248.705 1146.17 264.023 1142.85 284.86C1140.72 298.3 1144.58 312.034 1153.31 321.994L1197.33 372.234C1201.26 376.715 1204.17 382.095 1205.85 387.961L1211.63 408.151C1217.14 427.439 1234.2 440.3 1253.09 439.416L1284.27 437.958C1298.26 437.303 1310.99 429.157 1318.12 416.3L1360.4 340.078C1368.86 324.827 1367.96 305.661 1358.12 291.383L1311.78 224.129C1305.69 215.296 1297.06 209.541 1287.71 207.238ZM1263.71 213.25L1274.8 210.261C1287.62 208.967 1300.67 214.733 1308.77 226.488L1355.11 293.742C1364.07 306.734 1364.88 324.173 1357.19 338.05L1314.91 414.272C1308.42 425.97 1296.83 433.383 1284.1 433.978L1252.92 435.437C1235.74 436.241 1220.22 424.539 1215.2 406.989L1209.42 386.799C1207.58 380.352 1204.38 374.439 1200.06 369.514L1156.04 319.274C1148.11 310.223 1144.59 297.741 1146.54 285.526C1149.55 266.589 1164.83 252.667 1182.84 252.465L1192.16 252.36C1199.71 252.275 1207.09 249.996 1213.5 245.768L1237.78 229.774C1237.49 230.058 1237.2 230.348 1236.92 230.642L1216.01 252.144C1211.57 256.715 1206.04 259.903 1200.02 261.362L1194.89 262.606C1180.11 266.189 1169.86 280.558 1170.56 296.71C1171.02 307.095 1175.98 316.661 1183.99 322.585L1222.08 350.759C1226.79 354.248 1230.7 358.838 1233.5 364.18L1236.01 368.955C1245.23 386.544 1264.44 395.255 1282.71 390.136L1292.88 387.286C1306.45 383.484 1317.3 372.619 1321.71 358.411L1337.63 307.077C1342.84 290.279 1338.16 271.786 1325.73 260.068L1293.14 229.34C1281.23 218.111 1264.84 215.447 1250.82 221.189L1258.56 216.086C1260.23 214.987 1261.95 214.043 1263.71 213.25ZM1208.19 233.044L1230.9 222.09L1217.03 225.824C1209.73 227.791 1202.07 227.6 1194.86 225.27L1161.99 214.643C1144.55 209.006 1125.82 217.477 1117.5 234.769L1106.46 257.693C1101.08 268.88 1100.91 282.11 1106.01 293.451L1152.89 397.798C1155.63 403.889 1157.02 410.566 1156.96 417.32L1156.51 468.663C1156.35 487.022 1167.86 503.168 1184.49 507.905L1253.2 527.481C1265.49 530.983 1278.61 527.639 1288.09 518.588L1396.45 415.115C1407.73 404.346 1411.87 387.427 1406.98 372.146L1360.02 225.412C1355.74 212.035 1345.45 202.533 1333.35 199.345L1316.07 202.333C1321.97 206.199 1327.04 211.688 1330.61 218.571L1383.97 321.313C1392.03 336.825 1390.62 355.97 1380.39 369.946L1311.06 464.651C1302.44 476.415 1288.85 482.75 1274.91 481.496L1224.93 477.002C1206.09 475.307 1190.71 460.222 1187.55 440.335L1182 405.368C1181.03 399.315 1178.79 393.577 1175.43 388.594L1125.64 314.797C1118.08 303.588 1115.86 289.255 1119.65 276.05L1122.9 264.702C1128.76 244.261 1147.49 231.218 1167.39 233.721L1188.23 236.342C1195.04 237.199 1201.94 236.059 1208.19 233.044ZM1240.42 215.415L1219.1 219.102C1211.67 220.387 1204.06 219.49 1197.07 216.509L1152.95 197.679C1136.03 190.461 1116.7 197.17 1107.01 213.62L1087.31 247.044C1081.03 257.698 1079.79 270.871 1083.95 282.646L1130.32 413.806C1132.56 420.129 1133.41 426.915 1132.8 433.641L1126.78 500.349C1125.13 518.627 1135.29 535.777 1151.48 542.028L1237.8 575.36C1249.75 579.977 1263.08 577.857 1273.26 569.722L1415.5 455.978C1427.62 446.288 1433.13 429.807 1429.49 414.126L1386.21 227.622C1382.47 211.475 1369.99 199.908 1355.31 197.514L1341.57 198.205C1351.59 203.099 1359.74 212.214 1363.55 224.125L1410.52 370.859C1415.89 387.653 1411.33 406.247 1398.94 418.083L1290.58 521.556C1280.16 531.503 1265.74 535.178 1252.23 531.329L1183.52 511.753C1165.25 506.546 1152.6 488.802 1152.77 468.626L1153.22 417.282C1153.28 411.138 1152.01 405.061 1149.52 399.52L1102.64 295.173C1097.04 282.709 1097.23 268.169 1103.14 255.874L1114.18 232.95C1123.32 213.945 1143.9 204.636 1163.07 210.831L1195.95 221.459C1202.5 223.578 1209.48 223.752 1216.12 221.963L1240.42 215.415ZM1272.94 201.655L1223.22 204.154C1215.71 204.532 1208.25 202.723 1201.63 198.922L1136.92 161.775C1120.89 152.571 1100.98 156.898 1089.6 172.06L1050.64 223.987C1043.26 233.818 1040.62 246.768 1043.52 258.977L1086.79 441.676C1088.34 448.233 1088.46 455.083 1087.15 461.698L1068.06 557.489C1064.47 575.455 1072.76 593.726 1088.18 601.889L1206.93 664.737C1218.32 670.761 1231.78 670.266 1242.74 663.422L1451.23 533.302C1464.31 525.139 1471.54 509.419 1469.58 493.391L1437.49 230.344C1434.96 209.584 1417.92 194.366 1398.32 195.352L1393.72 195.583C1403.31 201.764 1410.51 212.039 1412.91 224.574L1456.29 450.648C1459.63 468.048 1452.88 485.89 1439.15 495.949L1264.86 623.7C1253.35 632.137 1238.63 633.823 1225.7 628.185L1120.79 582.431C1103.27 574.792 1092.83 555.47 1095.41 535.474L1106.08 452.913C1106.86 446.818 1106.33 440.612 1104.52 434.772L1055.67 277.511C1051.59 264.376 1053.52 249.961 1060.87 238.56L1089.42 194.261C1100.76 176.671 1122.26 170.235 1140.53 178.965L1196.42 205.683C1202.66 208.668 1209.55 209.785 1216.34 208.913L1272.94 201.655ZM1174.29 296.524C1174.69 305.67 1179.07 314.095 1186.12 319.312L1224.21 347.487C1229.39 351.32 1233.68 356.365 1236.76 362.236L1239.26 367.011C1247.66 383.016 1265.13 390.942 1281.76 386.284L1291.94 383.433C1304.28 379.975 1314.15 370.088 1318.16 357.16L1334.08 305.826C1338.82 290.542 1334.56 273.715 1323.26 263.052L1290.67 232.324C1275.93 218.432 1253.66 218.947 1239.51 233.509L1218.61 255.01C1213.67 260.086 1207.53 263.625 1200.85 265.246L1195.72 266.49C1182.7 269.646 1173.67 282.3 1174.29 296.524ZM1220.42 315.964C1214.88 314.605 1210.25 310.563 1207.9 305.036C1204.27 296.475 1206.9 286.368 1214.15 281.032L1217.17 278.815C1221.11 275.914 1224.24 271.92 1226.21 267.264L1229.64 259.157C1237.74 240.06 1258.22 230.79 1276.72 237.85L1285.87 241.344C1300.11 246.778 1309.93 260.758 1310.81 276.861L1312.18 301.715C1312.79 312.743 1308.14 323.352 1299.81 329.924L1298.5 330.96C1288.03 339.227 1273.64 338.886 1263.52 330.133C1259.7 326.822 1255.21 324.49 1250.41 323.313L1220.42 315.964ZM1204.5 306.678C1207.32 313.338 1212.9 318.209 1219.58 319.845L1249.57 327.195C1253.82 328.236 1257.79 330.298 1261.17 333.226C1272.61 343.124 1288.88 343.509 1300.72 334.162L1302.03 333.125C1311.37 325.753 1316.59 313.852 1315.91 301.482L1314.54 276.627C1313.57 258.93 1302.78 243.566 1287.13 237.594L1277.97 234.1C1257.64 226.341 1235.14 236.529 1226.24 257.516L1222.81 265.623C1221.11 269.619 1218.43 273.047 1215.05 275.537L1212.03 277.754C1203.29 284.183 1200.12 296.362 1204.5 306.678ZM1239.51 294.199C1241.75 296.66 1244.93 297.868 1248.12 297.466L1266.67 295.131C1269.75 294.743 1272.87 295.11 1275.79 296.204C1282.94 298.877 1290.87 296.057 1295.09 289.346L1295.61 288.511C1298.97 283.167 1299.56 276.375 1297.19 270.46L1292.6 259.001C1288.53 248.84 1279.18 242.248 1268.82 242.247L1267.23 242.246C1254.64 242.245 1244.16 252.562 1243.15 265.951L1242.9 269.278C1242.66 272.506 1241.6 275.602 1239.82 278.231L1238.54 280.126C1235.63 284.448 1236.04 290.377 1239.51 294.199ZM1248.56 301.422C1244.21 301.969 1239.88 300.323 1236.83 296.971C1232.1 291.764 1231.54 283.688 1235.51 277.801L1236.79 275.906C1238.17 273.866 1238.99 271.464 1239.18 268.959L1239.43 265.632C1240.59 250.174 1252.7 238.262 1267.24 238.263L1268.82 238.264C1280.67 238.265 1291.38 245.809 1296.04 257.436L1300.63 268.896C1303.49 276.05 1302.77 284.264 1298.71 290.727L1298.19 291.563C1293.03 299.782 1283.31 303.237 1274.55 299.962C1272.17 299.07 1269.62 298.77 1267.11 299.086L1248.56 301.422ZM1266.36 265.825C1265.76 265.948 1265.14 265.767 1264.67 265.335C1263.94 264.65 1263.78 263.502 1264.29 262.618L1264.62 262.043C1265.25 260.958 1265.58 259.708 1265.59 258.433L1265.59 257.374C1265.59 253.877 1268.13 250.977 1271.4 250.726L1272.06 250.675C1274.82 250.463 1277.43 252.012 1278.72 254.622L1280.45 258.106C1281.14 259.5 1281.11 261.173 1280.38 262.542L1280.28 262.73C1279.36 264.438 1277.49 265.275 1275.7 264.767C1274.57 264.444 1273.39 264.398 1272.23 264.632L1266.36 265.825ZM1262.21 268.329C1263.54 269.57 1265.33 270.09 1267.06 269.738L1272.93 268.544C1273.53 268.422 1274.15 268.446 1274.74 268.615C1278.16 269.59 1281.77 267.983 1283.52 264.704L1283.62 264.515C1284.99 261.964 1285.03 258.846 1283.75 256.248L1282.03 252.764C1280.04 248.755 1276.03 246.377 1271.79 246.703L1271.13 246.753C1265.91 247.154 1261.86 251.783 1261.85 257.366L1261.85 258.425C1261.85 258.965 1261.71 259.494 1261.44 259.954L1261.11 260.529C1259.65 263.067 1260.11 266.363 1262.21 268.329Z" fill="black"/>
</mask>
<g mask="url(#mask0)">
<path d="M1613.29 739.468L554.9 808.573L505.921 -44.8948L1564.31 -114L1613.29 739.468Z" fill="url(#paint0_linear)"/>
</g>
</g>
<defs>
<linearGradient id="paint0_linear" x1="712.277" y1="774.126" x2="1095.61" y2="-102.043" gradientUnits="userSpaceOnUse">
<stop stop-color="#02FFAD"/>
<stop offset="1" stop-color="#F71DF4"/>
</linearGradient>
<clipPath id="clip0">
<rect width="1440" height="750" fill="white"/>
</clipPath>
</defs>
</svg>
